<?xml version="1.0" encoding="utf-8"?>
<svg width="34" height="30" viewBox="0 0 34 30" fill="none" xmlns="http://www.w3.org/2000/svg" xmlnsBx="https://boxy-svg.com">
  <path fill-rule="evenodd" clip-rule="evenodd" d="M 25.458 5.849 C 27.691 5.849 29.833 6.55 31.412 7.797 C 32.992 9.044 33.88 10.736 33.88 12.499 L 33.88 23.137 C 33.88 24.901 32.992 26.593 31.412 27.839 C 29.833 29.088 27.691 29.787 25.458 29.787 L 1.876 29.787 C 1.428 29.787 1.001 29.648 0.685 29.398 C 0.37 29.148 0.191 28.81 0.191 28.457 L 0.191 12.499 C 0.191 10.736 1.077 9.044 2.659 7.797 C 4.237 6.55 6.38 5.849 8.614 5.849 L 25.458 5.849 Z M 11.982 15.159 C 11.57 15.159 11.171 15.279 10.863 15.495 C 10.554 15.711 10.358 16.01 10.31 16.333 L 10.298 16.488 L 10.298 19.149 C 10.298 19.488 10.462 19.812 10.757 20.06 C 11.052 20.307 11.455 20.454 11.882 20.474 C 12.312 20.494 12.735 20.384 13.063 20.166 C 13.392 19.949 13.605 19.641 13.655 19.303 L 13.667 19.149 L 13.667 16.488 C 13.667 16.136 13.488 15.797 13.173 15.548 C 12.857 15.299 12.429 15.159 11.982 15.159 Z M 22.088 15.159 C 21.643 15.159 21.213 15.299 20.897 15.548 C 20.582 15.797 20.405 16.136 20.405 16.488 L 20.405 19.149 C 20.405 19.501 20.582 19.839 20.897 20.088 C 21.213 20.338 21.643 20.477 22.088 20.477 C 22.535 20.477 22.964 20.338 23.279 20.088 C 23.595 19.839 23.773 19.501 23.773 19.149 L 23.773 16.488 C 23.773 16.136 23.595 15.797 23.279 15.548 C 22.964 15.299 22.535 15.159 22.088 15.159 Z" fill="#00A3FF" style=""/>
  <path d="M 11.615 0.355 L 16.011 6.063 L 7.219 6.063 L 11.615 0.355 Z" style="fill: rgb(0, 163, 255); fill-rule: evenodd;" bxShape="triangle 7.219 0.355 8.792 5.708 0.5 0 1@534bb171"/>
  <path d="M 23.474 0.445 L 27.87 6.188 L 19.078 6.188 L 23.474 0.445 Z" style="fill: rgb(0, 163, 255); fill-rule: evenodd;" bxShape="triangle 19.078 0.445 8.792 5.743 0.5 0 1@3a035117"/>
</svg>