<svg width="22" height="22" viewBox="0 0 22 22" fill="none" xmlns="http://www.w3.org/2000/svg">
<path fill-rule="evenodd" clip-rule="evenodd" d="M14.9646 13.6574L19.8962 18.5891C20.0696 18.7625 20.1669 18.9978 20.1668 19.243C20.1667 19.4882 20.0692 19.7234 19.8958 19.8967C19.7223 20.07 19.4871 20.1674 19.2419 20.1673C18.9966 20.1672 18.7615 20.0697 18.5882 19.8962L13.6565 14.9646C12.1822 16.1064 10.3283 16.6438 8.47194 16.4673C6.61555 16.2908 4.89612 15.4138 3.66343 14.0145C2.43075 12.6153 1.7774 10.7991 1.8363 8.93524C1.89521 7.07141 2.66195 5.30003 3.98053 3.98144C5.29911 2.66286 7.0705 1.89613 8.93432 1.83722C10.7982 1.77831 12.6144 2.43166 14.0136 3.66435C15.4129 4.89704 16.2899 6.61647 16.4664 8.47286C16.6429 10.3292 16.1055 12.1831 14.9637 13.6574H14.9646ZM9.16666 14.6667C10.6253 14.6667 12.0243 14.0872 13.0557 13.0557C14.0872 12.0243 14.6667 10.6253 14.6667 9.16666C14.6667 7.70796 14.0872 6.30902 13.0557 5.27757C12.0243 4.24612 10.6253 3.66666 9.16666 3.66666C7.70797 3.66666 6.30902 4.24612 5.27757 5.27757C4.24612 6.30902 3.66666 7.70796 3.66666 9.16666C3.66666 10.6253 4.24612 12.0243 5.27757 13.0557C6.30902 14.0872 7.70797 14.6667 9.16666 14.6667Z" fill="#ABAFB1" fill-opacity="0.6"/>
</svg>
